<?xml version="1.0" encoding="utf-8"?>
<!-- Generator: Adobe Illustrator 18.0.0, SVG Export Plug-In . SVG Version: 6.00 Build 0)  -->
<!DOCTYPE svg PUBLIC "-//W3C//DTD SVG 1.1//EN" "http://www.w3.org/Graphics/SVG/1.1/DTD/svg11.dtd">
<svg version="1.1" id="Layer_1" xmlns="http://www.w3.org/2000/svg" xmlns:xlink="http://www.w3.org/1999/xlink" x="0px" y="0px"
	 width="190px" height="70px" viewBox="0 0 190 70" enable-background="new 0 0 190 70" xml:space="preserve">
<g>
	<g>
		<polygon fill="#FFFFFF" points="37.1,33.6 49.6,26.4 49.6,26.4 49.6,26.4 49.6,17.7 42.8,13.8 42.8,22.5 30.3,29.7 30.3,29.7 
			30.3,65 37.1,61.1 		"/>
		<polyline fill="#FFFFFF" points="25.6,29.7 13.1,22.5 13.1,22.5 13.1,13.8 6.3,17.7 6.3,26.4 18.9,33.6 18.9,61.1 25.6,65 
			25.6,29.7 		"/>
		<circle fill="#FFFFFF" cx="28" cy="13.8" r="8.8"/>
	</g>
	<polygon fill="#FFFFFF" points="55,41 49.6,41 49.6,39.3 62.3,39.3 62.3,41 56.9,41 56.9,55.4 55,55.4 	"/>
	<polygon fill="#FFFFFF" points="67.6,39.3 79.2,39.3 79.2,40.9 69.4,40.9 69.4,46.5 78.2,46.5 78.2,48.1 69.4,48.1 69.4,53.8 
		79.3,53.8 79.3,55.4 67.6,55.4 	"/>
	<path fill="#FFFFFF" d="M92.2,55.7c-1.2,0-2.2-0.2-3.2-0.6c-1-0.4-1.8-1-2.6-1.8c-0.7-0.7-1.3-1.6-1.7-2.6c-0.4-1-0.6-2.1-0.6-3.3
		l0,0c0-1.1,0.2-2.2,0.6-3.2s1-1.9,1.7-2.7s1.6-1.4,2.6-1.8c1-0.4,2.1-0.7,3.3-0.7c0.7,0,1.4,0.1,2,0.2c0.6,0.1,1.1,0.3,1.6,0.5
		s1,0.5,1.4,0.8s0.8,0.7,1.2,1.1l-1.2,1.3c-0.7-0.6-1.4-1.2-2.2-1.6c-0.8-0.4-1.7-0.6-2.8-0.6c-0.9,0-1.7,0.2-2.5,0.5
		s-1.4,0.8-2,1.4c-0.6,0.6-1,1.3-1.3,2.1S86,46.4,86,47.3l0,0c0,0.9,0.2,1.8,0.5,2.6s0.8,1.5,1.3,2.1c0.6,0.6,1.2,1.1,2,1.4
		c0.8,0.3,1.6,0.5,2.5,0.5c1.1,0,2.1-0.2,2.9-0.6c0.8-0.4,1.6-1,2.4-1.7l1.2,1.2c-0.4,0.4-0.8,0.8-1.3,1.2c-0.5,0.3-0.9,0.6-1.5,0.9
		c-0.5,0.2-1.1,0.4-1.7,0.6C93.6,55.6,93,55.7,92.2,55.7"/>
	<polygon fill="#FFFFFF" points="103.7,39.3 105.4,39.3 115.6,52.2 115.6,39.3 117.4,39.3 117.4,55.4 115.9,55.4 105.5,42.2 
		105.5,55.4 103.7,55.4 	"/>
	<path fill="#FFFFFF" d="M131.3,55.7c-1.2,0-2.3-0.2-3.4-0.7c-1-0.4-1.9-1-2.6-1.8s-1.3-1.6-1.7-2.7c-0.4-1-0.6-2.1-0.6-3.2l0,0
		c0-1.1,0.2-2.2,0.6-3.2s1-1.9,1.7-2.7s1.6-1.4,2.6-1.8c1-0.5,2.1-0.7,3.4-0.7c1.2,0,2.3,0.2,3.4,0.7c1,0.4,1.9,1,2.6,1.8
		c0.7,0.8,1.3,1.6,1.7,2.7c0.4,1,0.6,2.1,0.6,3.2l0,0c0,1.1-0.2,2.2-0.6,3.2c-0.4,1-1,1.9-1.7,2.7s-1.6,1.4-2.6,1.8
		C133.6,55.5,132.5,55.7,131.3,55.7 M131.3,54c0.9,0,1.8-0.2,2.5-0.5c0.8-0.3,1.4-0.8,2-1.4c0.6-0.6,1-1.3,1.3-2.1s0.5-1.7,0.5-2.6
		l0,0c0-0.9-0.2-1.8-0.5-2.6s-0.8-1.5-1.3-2.1c-0.6-0.6-1.2-1.1-2-1.4c-0.8-0.4-1.6-0.5-2.5-0.5s-1.8,0.2-2.5,0.5
		c-0.8,0.3-1.4,0.8-2,1.4c-0.6,0.6-1,1.3-1.3,2.1s-0.5,1.7-0.5,2.6l0,0c0,0.9,0.2,1.8,0.5,2.6s0.8,1.5,1.3,2.1
		c0.6,0.6,1.2,1.1,2,1.4C129.5,53.8,130.4,54,131.3,54"/>
	<polygon fill="#FFFFFF" points="144.9,39.3 157.2,39.3 157.2,42.5 148.4,42.5 148.4,46 156.1,46 156.1,49.2 148.4,49.2 148.4,55.4 
		144.9,55.4 	"/>
	<rect x="162" y="39.3" fill="#FFFFFF" width="3.6" height="16.1"/>
	<polygon fill="#FFFFFF" points="175.2,42.5 170.3,42.5 170.3,39.3 183.7,39.3 183.7,42.5 178.7,42.5 178.7,55.4 175.2,55.4 	"/>
</g>
</svg>
